<svg width="150" height="150" viewBox="0 0 150 150" fill="none" xmlns="http://www.w3.org/2000/svg">
<g clip-path="url(#clip0)">
<path d="M98.4375 79.6875C98.4375 85.9035 95.9682 91.8649 91.5728 96.2603C87.1774 100.656 81.216 103.125 75 103.125C68.784 103.125 62.8226 100.656 58.4272 96.2603C54.0318 91.8649 51.5625 85.9035 51.5625 79.6875C51.5625 73.4715 54.0318 67.5101 58.4272 63.1147C62.8226 58.7193 68.784 56.25 75 56.25C81.216 56.25 87.1774 58.7193 91.5728 63.1147C95.9682 67.5101 98.4375 73.4715 98.4375 79.6875Z" fill="black"/>
<path fill-rule="evenodd" clip-rule="evenodd" d="M18.75 37.5C13.7772 37.5 9.00805 39.4754 5.49175 42.9917C1.97544 46.5081 0 51.2772 0 56.25L0 112.5C0 117.473 1.97544 122.242 5.49175 125.758C9.00805 129.275 13.7772 131.25 18.75 131.25H131.25C136.223 131.25 140.992 129.275 144.508 125.758C148.025 122.242 150 117.473 150 112.5V56.25C150 51.2772 148.025 46.5081 144.508 42.9917C140.992 39.4754 136.223 37.5 131.25 37.5H120.262C115.29 37.4989 110.522 35.5228 107.006 32.0063L99.2438 24.2437C95.7283 20.7272 90.9599 18.7511 85.9875 18.75H64.0125C59.0401 18.7511 54.2717 20.7272 50.7562 24.2437L42.9938 32.0063C39.4783 35.5228 34.7099 37.4989 29.7375 37.5H18.75ZM23.4375 56.25C24.6807 56.25 25.873 55.7561 26.7521 54.8771C27.6311 53.998 28.125 52.8057 28.125 51.5625C28.125 50.3193 27.6311 49.127 26.7521 48.2479C25.873 47.3689 24.6807 46.875 23.4375 46.875C22.1943 46.875 21.002 47.3689 20.1229 48.2479C19.2439 49.127 18.75 50.3193 18.75 51.5625C18.75 52.8057 19.2439 53.998 20.1229 54.8771C21.002 55.7561 22.1943 56.25 23.4375 56.25ZM107.812 79.6875C107.812 88.3899 104.355 96.7359 98.2019 102.889C92.0484 109.043 83.7024 112.5 75 112.5C66.2976 112.5 57.9516 109.043 51.7981 102.889C45.6445 96.7359 42.1875 88.3899 42.1875 79.6875C42.1875 70.9851 45.6445 62.6391 51.7981 56.4856C57.9516 50.332 66.2976 46.875 75 46.875C83.7024 46.875 92.0484 50.332 98.2019 56.4856C104.355 62.6391 107.812 70.9851 107.812 79.6875Z" fill="black"/>
</g>
<defs>
<clipPath id="clip0">
<rect width="150" height="150" fill="white"/>
</clipPath>
</defs>
</svg>
