<svg width="30" height="30" viewBox="0 0 30 30" fill="none" xmlns="http://www.w3.org/2000/svg">
<path fill-rule="evenodd" clip-rule="evenodd" d="M14.9998 6.65259L13.6554 5.27072C10.4998 2.02697 4.71355 3.14634 2.6248 7.22447C1.64418 9.14259 1.42293 11.912 3.21355 15.4463C4.93855 18.8495 8.5273 22.9257 14.9998 27.3657C21.4723 22.9257 25.0592 18.8495 26.7861 15.4463C28.5767 11.9101 28.3573 9.14259 27.3748 7.22447C25.2861 3.14634 19.4998 2.02509 16.3442 5.26884L14.9998 6.65259ZM14.9998 29.6251C-13.7496 10.6276 6.14793 -4.19991 14.6698 3.64322C14.7823 3.74634 14.8929 3.85322 14.9998 3.96384C15.1056 3.85332 15.2157 3.74698 15.3298 3.64509C23.8498 -4.20366 43.7492 10.6257 14.9998 29.6251Z" fill="#DDDDDD"/>
</svg>
