<svg width="150" height="150" viewBox="0 0 150 150" fill="none" xmlns="http://www.w3.org/2000/svg">
<path fill-rule="evenodd" clip-rule="evenodd" d="M75 140.625C92.4048 140.625 109.097 133.711 121.404 121.404C133.711 109.097 140.625 92.4048 140.625 75C140.625 57.5952 133.711 40.9032 121.404 28.5961C109.097 16.289 92.4048 9.375 75 9.375C57.5952 9.375 40.9032 16.289 28.5961 28.5961C16.289 40.9032 9.375 57.5952 9.375 75C9.375 92.4048 16.289 109.097 28.5961 121.404C40.9032 133.711 57.5952 140.625 75 140.625ZM75 150C94.8912 150 113.968 142.098 128.033 128.033C142.098 113.968 150 94.8912 150 75C150 55.1088 142.098 36.0322 128.033 21.967C113.968 7.90176 94.8912 0 75 0C55.1088 0 36.0322 7.90176 21.967 21.967C7.90176 36.0322 0 55.1088 0 75C0 94.8912 7.90176 113.968 21.967 128.033C36.0322 142.098 55.1088 150 75 150Z" fill="#D75151"/>
<path fill-rule="evenodd" clip-rule="evenodd" d="M111.131 38.8693C111.568 39.3047 111.914 39.822 112.15 40.3915C112.387 40.961 112.508 41.5715 112.508 42.1881C112.508 42.8046 112.387 43.4151 112.15 43.9846C111.914 44.5541 111.568 45.0714 111.131 45.5068L45.5063 111.132C44.6261 112.012 43.4323 112.506 42.1876 112.506C40.9428 112.506 39.749 112.012 38.8688 111.132C37.9886 110.252 37.4941 109.058 37.4941 107.813C37.4941 106.568 37.9886 105.375 38.8688 104.494L104.494 38.8693C104.929 38.4328 105.447 38.0864 106.016 37.8501C106.585 37.6138 107.196 37.4922 107.813 37.4922C108.429 37.4922 109.04 37.6138 109.609 37.8501C110.179 38.0864 110.696 38.4328 111.131 38.8693Z" fill="#D75151"/>
<path fill-rule="evenodd" clip-rule="evenodd" d="M38.8683 38.8693C38.4318 39.3047 38.0855 39.822 37.8492 40.3915C37.6128 40.961 37.4912 41.5715 37.4912 42.1881C37.4912 42.8046 37.6128 43.4151 37.8492 43.9846C38.0855 44.5541 38.4318 45.0714 38.8683 45.5068L104.493 111.132C105.374 112.012 106.567 112.506 107.812 112.506C109.057 112.506 110.251 112.012 111.131 111.132C112.011 110.252 112.506 109.058 112.506 107.813C112.506 106.568 112.011 105.375 111.131 104.494L45.5058 38.8693C45.0704 38.4328 44.5531 38.0864 43.9837 37.8501C43.4142 37.6138 42.8037 37.4922 42.1871 37.4922C41.5705 37.4922 40.96 37.6138 40.3905 37.8501C39.821 38.0864 39.3038 38.4328 38.8683 38.8693Z" fill="#D75151"/>
</svg>
