<svg width="80" height="80" viewBox="0 0 80 80" fill="none" xmlns="http://www.w3.org/2000/svg">
<path d="M57.5 26.25H42.5V16.25H70C70.9942 16.2489 71.9474 15.8534 72.6504 15.1504C73.3534 14.4474 73.7489 13.4942 73.75 12.5V2.5H68.75V11.25H41.25C40.2558 11.2511 39.3026 11.6466 38.5996 12.3496C37.8966 13.0526 37.5011 14.0058 37.5 15V26.25H22.5C17.1975 26.256 12.1139 28.3651 8.36449 32.1145C4.61506 35.8639 2.506 40.9475 2.5 46.25V62.0239C2.50426 65.7956 4.00444 69.4116 6.67143 72.0786C9.33842 74.7456 12.9544 76.2457 16.7261 76.25H17.0073C19.0935 76.2528 21.1546 75.7955 23.0438 74.9108C24.9331 74.026 26.604 72.7355 27.9375 71.1312L36.1719 61.25H43.77L51.9991 71.9477C53.8106 74.3022 56.3138 76.0305 59.1574 76.8902C62.0011 77.7498 65.0425 77.6977 67.8551 76.7411C70.6676 75.7844 73.11 73.9713 74.8398 71.5561C76.5695 69.1408 77.4998 66.2447 77.5 63.2739V46.25C77.494 40.9475 75.3849 35.8639 71.6355 32.1145C67.8861 28.3651 62.8025 26.256 57.5 26.25ZM72.5 63.2739C72.4999 65.2007 71.8967 67.0791 70.7748 68.6455C69.6529 70.212 68.0688 71.388 66.2447 72.0084C64.4205 72.6288 62.4479 72.6625 60.6036 72.1049C58.7593 71.5472 57.1359 70.4261 55.9611 68.8989L46.2309 56.25H33.8291L24.0956 67.9303C23.2309 68.9706 22.1473 69.8075 20.9222 70.3813C19.6972 70.9551 18.3606 71.2517 17.0078 71.25H16.7266C14.2804 71.2474 11.9352 70.2745 10.2054 68.5449C8.4757 66.8152 7.50273 64.4701 7.5 62.0239V46.25C7.50447 42.2731 9.08625 38.4604 11.8983 35.6483C14.7104 32.8363 18.5231 31.2545 22.5 31.25H57.5C61.4769 31.2545 65.2896 32.8363 68.1017 35.6483C70.9137 38.4604 72.4955 42.2731 72.5 46.25V63.2739Z" fill="#D5D5D5"/>
<path d="M56.25 38.75H61.25V43.75H56.25V38.75Z" fill="#D5D5D5"/>
<path d="M56.25 51.25H61.25V56.25H56.25V51.25Z" fill="#D5D5D5"/>
<path d="M50 45H55V50H50V45Z" fill="#D5D5D5"/>
<path d="M62.5 45H67.5V50H62.5V45Z" fill="#D5D5D5"/>
<path d="M23.75 38.75H18.75V45H12.5V50H18.75V56.25H23.75V50H30V45H23.75V38.75Z" fill="#D5D5D5"/>
</svg>
