<svg width="47" height="47" viewBox="0 0 47 47" fill="none" xmlns="http://www.w3.org/2000/svg">
<path d="M45.0417 21.5417C43.9607 21.5417 43.0833 22.419 43.0833 23.5C43.0833 34.2983 34.2983 43.0833 23.5 43.0833C12.7018 43.0833 3.91667 34.2983 3.91667 23.5C3.91667 12.7018 12.7018 3.91667 23.5 3.91667C28.7571 3.91667 33.6921 5.97096 37.3963 9.70158C38.1581 10.4683 39.3987 10.4732 40.1654 9.71138C40.9331 8.94958 40.937 7.70898 40.1752 6.94131C35.7308 2.46554 29.8078 0 23.5 0C10.5417 0 0 10.5417 0 23.5C0 36.4583 10.5417 47 23.5 47C36.4573 47 47 36.4583 47 23.5C47 22.419 46.1227 21.5417 45.0417 21.5417Z" fill="black"/>
<path d="M26.2692 23.5001L30.7596 19.0096C31.5243 18.2449 31.5243 17.0053 30.7596 16.2405C29.9949 15.4758 28.7553 15.4758 27.9905 16.2405L23.5001 20.731L19.0096 16.2405C18.2459 15.4758 17.0043 15.4758 16.2405 16.2405C15.4758 17.0053 15.4758 18.2449 16.2405 19.0096L20.731 23.5001L16.2405 27.9905C15.4758 28.7553 15.4758 29.9949 16.2405 30.7596C16.6224 31.1425 17.1237 31.3334 17.6251 31.3334C18.1264 31.3334 18.6277 31.1425 19.0096 30.7596L23.5001 26.2692L27.9905 30.7596C28.3734 31.1425 28.8737 31.3334 29.3751 31.3334C29.8764 31.3334 30.3768 31.1425 30.7596 30.7596C31.5243 29.9949 31.5243 28.7553 30.7596 27.9905L26.2692 23.5001Z" fill="black"/>
</svg>
