<svg width="40" height="60" viewBox="0 0 40 60" fill="none" xmlns="http://www.w3.org/2000/svg">
<path d="M38.1818 22.5H36.3636C35.3591 22.5 34.5455 23.3391 34.5455 24.375V30C34.5455 38.7656 27.217 45.7992 18.5466 44.9273C10.9898 44.1668 5.45455 37.1613 5.45455 29.332V24.375C5.45455 23.3391 4.64091 22.5 3.63636 22.5H1.81818C0.813636 22.5 0 23.3391 0 24.375V29.0813C0 39.5859 7.26932 48.9504 17.2727 50.373V54.375H10.9091C9.90455 54.375 9.09091 55.2141 9.09091 56.25V58.125C9.09091 59.1609 9.90455 60 10.9091 60H29.0909C30.0955 60 30.9091 59.1609 30.9091 58.125V56.25C30.9091 55.2141 30.0955 54.375 29.0909 54.375H22.7273V50.4176C32.467 49.0395 40 40.418 40 30V24.375C40 23.3391 39.1864 22.5 38.1818 22.5ZM20 41.25C26.025 41.25 30.9091 36.2133 30.9091 30H21.2125C20.5432 30 20 29.5805 20 29.0625V27.1875C20 26.6695 20.5432 26.25 21.2125 26.25H30.9091V22.5H21.2125C20.5432 22.5 20 22.0805 20 21.5625V19.6875C20 19.1695 20.5432 18.75 21.2125 18.75H30.9091V15H21.2125C20.5432 15 20 14.5805 20 14.0625V12.1875C20 11.6695 20.5432 11.25 21.2125 11.25H30.9091C30.9091 5.03672 26.025 0 20 0C13.975 0 9.09091 5.03672 9.09091 11.25V30C9.09091 36.2133 13.975 41.25 20 41.25Z" fill="white" fill-opacity="0.6"/>
</svg>
