<svg width="50" height="50" viewBox="0 0 50 50" fill="none" xmlns="http://www.w3.org/2000/svg">
<path d="M35.9375 16.4063H26.5625V10.1563H43.75C44.3714 10.1556 44.9671 9.9084 45.4065 9.46901C45.8459 9.02962 46.0931 8.43389 46.0938 7.8125V1.5625H42.9688V7.03125H25.7812C25.1599 7.03195 24.5641 7.2791 24.1247 7.71849C23.6854 8.15788 23.4382 8.75361 23.4375 9.375V16.4063H14.0625C10.7484 16.41 7.5712 17.7282 5.2278 20.0716C2.88441 22.4149 1.56625 25.5922 1.5625 28.9063V38.7649C1.56516 41.1223 2.50278 43.3822 4.16964 45.0491C5.83651 46.716 8.0965 47.6536 10.4538 47.6563H10.6296C11.9334 47.658 13.2216 47.3722 14.4024 46.8192C15.5832 46.2663 16.6275 45.4597 17.4609 44.457L22.6074 38.2813H27.3562L32.4994 44.9673C33.6316 46.4389 35.1961 47.5191 36.9734 48.0564C38.7507 48.5937 40.6516 48.5611 42.4094 47.9632C44.1672 47.3653 45.6938 46.2321 46.7749 44.7225C47.856 43.213 48.4374 41.4029 48.4375 39.5462V28.9063C48.4338 25.5922 47.1156 22.4149 44.7722 20.0716C42.4288 17.7282 39.2516 16.41 35.9375 16.4063ZM45.3125 39.5462C45.3125 40.7504 44.9354 41.9244 44.2343 42.9035C43.5331 43.8825 42.543 44.6175 41.4029 45.0052C40.2628 45.393 39.0299 45.4141 37.8772 45.0655C36.7246 44.717 35.7099 44.0163 34.9757 43.0618L28.8943 35.1563H21.1432L15.0598 42.4565C14.5193 43.1066 13.8421 43.6297 13.0764 43.9883C12.3107 44.3469 11.4754 44.5323 10.6299 44.5313H10.4541C8.92525 44.5296 7.45949 43.9216 6.3784 42.8406C5.29731 41.7595 4.68921 40.2938 4.6875 38.7649V28.9063C4.69029 26.4207 5.67891 24.0378 7.43646 22.2802C9.19401 20.5227 11.577 19.534 14.0625 19.5313H35.9375C38.423 19.534 40.806 20.5227 42.5635 22.2802C44.3211 24.0378 45.3097 26.4207 45.3125 28.9063V39.5462Z" fill="white"/>
<path d="M35.1562 24.2188H38.2812V27.3438H35.1562V24.2188Z" fill="white"/>
<path d="M35.1562 32.0312H38.2812V35.1562H35.1562V32.0312Z" fill="white"/>
<path d="M31.25 28.125H34.375V31.25H31.25V28.125Z" fill="white"/>
<path d="M39.0625 28.125H42.1875V31.25H39.0625V28.125Z" fill="white"/>
<path d="M14.8438 24.2188H11.7188V28.125H7.8125V31.25H11.7188V35.1562H14.8438V31.25H18.75V28.125H14.8438V24.2188Z" fill="white"/>
</svg>
