<svg width="50" height="50" viewBox="0 0 50 50" fill="none" xmlns="http://www.w3.org/2000/svg">
<path d="M35.7333 15.477H26.5333V9.01791H43.4C44.0098 9.01719 44.5944 8.76177 45.0256 8.30769C45.4568 7.8536 45.6993 7.23794 45.7 6.59577V0.136719H42.6333V5.78839H25.7667C25.1569 5.78911 24.5723 6.04453 24.1411 6.49861C23.7099 6.9527 23.4674 7.56836 23.4667 8.21053V15.477H14.2667C11.0145 15.4808 7.89653 16.8431 5.59689 19.2649C3.29724 21.6866 2.00368 24.9702 2 28.3951V38.5835C2.00261 41.0197 2.92273 43.3552 4.55848 45.0779C6.19423 46.8005 8.41204 47.7695 10.7253 47.7722H10.8978C12.1773 47.774 13.4415 47.4787 14.6002 46.9072C15.7589 46.3357 16.7838 45.5022 17.6017 44.466L22.6521 38.0836H27.3123L32.3594 44.9933C33.4705 46.5141 35.0058 47.6304 36.7499 48.1857C38.494 48.741 40.3594 48.7073 42.0844 48.0894C43.8094 47.4715 45.3075 46.3004 46.3684 44.7404C47.4293 43.1804 47.9999 41.3097 48 39.3909V28.3951C47.9963 24.9702 46.7028 21.6866 44.4031 19.2649C42.1035 16.8431 38.9855 15.4808 35.7333 15.477ZM44.9333 39.3909C44.9333 40.6354 44.5633 41.8487 43.8752 42.8605C43.1871 43.8722 42.2155 44.6318 41.0967 45.0325C39.9779 45.4332 38.768 45.455 37.6369 45.0948C36.5057 44.7346 35.51 44.0105 34.7895 43.0241L28.8216 34.8541H21.2152L15.2453 42.3985C14.7149 43.0704 14.0504 43.611 13.299 43.9816C12.5476 44.3522 11.7278 44.5438 10.8981 44.5427H10.7256C9.22532 44.541 7.78691 43.9126 6.726 42.7954C5.6651 41.6782 5.06834 40.1635 5.06667 38.5835V28.3951C5.06941 25.8264 6.03957 23.3637 7.76431 21.5474C9.48905 19.7311 11.8275 18.7094 14.2667 18.7065H35.7333C38.1725 18.7094 40.5109 19.7311 42.2357 21.5474C43.9604 23.3637 44.9306 25.8264 44.9333 28.3951V39.3909Z" fill="black"/>
<path d="M35.1562 24.2188H38.2812V27.3438H35.1562V24.2188Z" fill="black"/>
<path d="M35.1562 32.0312H38.2812V35.1562H35.1562V32.0312Z" fill="black"/>
<path d="M31.25 28.125H34.375V31.25H31.25V28.125Z" fill="black"/>
<path d="M39.0625 28.125H42.1875V31.25H39.0625V28.125Z" fill="black"/>
<path d="M14.8438 24.2188H11.7188V28.125H7.8125V31.25H11.7188V35.1562H14.8438V31.25H18.75V28.125H14.8438V24.2188Z" fill="black"/>
</svg>
