<svg width="45" height="45" viewBox="0 0 45 45" fill="none" xmlns="http://www.w3.org/2000/svg">
<path d="M38.5036 24.0225H35.0234C35.3782 24.9937 35.572 26.0418 35.572 27.1341V40.287C35.572 40.7424 35.4927 41.1796 35.3485 41.5862H41.1019C43.2511 41.5862 44.9995 39.8377 44.9995 37.6886V30.5184C44.9996 26.9366 42.0855 24.0225 38.5036 24.0225Z" fill="white"/>
<path d="M9.42761 27.1341C9.42761 26.0417 9.62141 24.9937 9.97613 24.0225H6.49601C2.91411 24.0225 0 26.9366 0 30.5185V37.6887C0 39.8378 1.74841 41.5863 3.89761 41.5863H9.65111C9.50688 41.1795 9.42761 40.7425 9.42761 40.287V27.1341Z" fill="white"/>
<path d="M26.4774 20.6382H18.5214C14.9395 20.6382 12.0254 23.5523 12.0254 27.1342V40.2871C12.0254 41.0045 12.6071 41.5863 13.3246 41.5863H31.6743C32.3918 41.5863 32.9735 41.0046 32.9735 40.2871V27.1342C32.9735 23.5523 30.0593 20.6382 26.4774 20.6382Z" fill="white"/>
<path d="M22.4998 3.41357C18.1921 3.41357 14.6875 6.91813 14.6875 11.2259C14.6875 14.1479 16.3002 16.6998 18.6819 18.0396C19.8115 18.675 21.1139 19.0382 22.4998 19.0382C23.8856 19.0382 25.188 18.675 26.3176 18.0396C28.6994 16.6998 30.312 14.1478 30.312 11.2259C30.312 6.91822 26.8075 3.41357 22.4998 3.41357Z" fill="white"/>
<path d="M8.78199 10.6953C5.56036 10.6953 2.93945 13.3162 2.93945 16.5379C2.93945 19.7595 5.56036 22.3804 8.78199 22.3804C9.5992 22.3804 10.3774 22.2111 11.0843 21.9068C12.3065 21.3806 13.3143 20.4492 13.9378 19.2824C14.3755 18.4635 14.6245 17.5293 14.6245 16.5379C14.6245 13.3163 12.0036 10.6953 8.78199 10.6953Z" fill="white"/>
<path d="M36.2185 10.6953C32.9969 10.6953 30.376 13.3162 30.376 16.5379C30.376 17.5294 30.625 18.4636 31.0627 19.2824C31.6863 20.4493 32.694 21.3807 33.9162 21.9068C34.6231 22.2111 35.4013 22.3804 36.2185 22.3804C39.4402 22.3804 42.0611 19.7595 42.0611 16.5379C42.0611 13.3162 39.4402 10.6953 36.2185 10.6953Z" fill="white"/>
</svg>
