<svg width="55" height="56" viewBox="0 0 55 56" fill="none" xmlns="http://www.w3.org/2000/svg">
<g filter="url(#filter0_b)">
<path d="M5.10995 26.937C2.53268 33.2274 7.01174 40.8198 13.5181 42.1506C8.44776 38.6839 5.28182 33.1145 5.10995 26.937Z" fill="#FFB500"/>
<path d="M13.518 42.151L13.3599 42.1162C13.3796 42.1216 13.4269 42.1296 13.518 42.151Z" fill="#FFB500"/>
<path d="M1.71875 38.7285C2.13898 43.996 8.62726 47.3718 13.2834 45.214C8.48976 44.1658 5.31008 43.2059 1.71875 38.7285Z" fill="#FFB500"/>
<path d="M39.9645 19.9447C42.9826 13.6727 38.6969 5.91318 32.1829 4.22705C37.1664 7.93092 40.1226 13.698 39.9645 19.9447Z" fill="#FFB500"/>
<path d="M41.9933 15.6172C45.5958 12.3719 44.1435 5.91523 39.9893 3.81348C41.9916 7.80785 42.6972 11.1819 41.9933 15.6172Z" fill="#FFB500"/>
<path d="M52.0084 12.5517C51.1934 11.9173 50.1958 11.5741 49.1699 11.5752C42.9773 11.5752 41.867 19.7879 40.4928 22.9939C40.4928 22.9939 34.1429 9.45854 31.9343 4.99254C29.657 0.385663 24.7955 1.33766 23.3715 3.84541C19.989 0.276288 13.5978 3.15766 14.4125 7.49679C10.0263 7.15379 8.25337 11.5594 9.22704 14.3839C5.83681 14.2772 4.25212 18.5463 5.39853 21.6027C5.45782 21.7619 11.4769 33.8229 13.0977 37.9319C13.2859 38.4088 13.4758 38.9189 13.6752 39.4562C14.9857 42.9842 16.7809 47.8159 21.272 51.6965C23.2056 53.3669 25.8826 54.2498 29.0159 54.2498C34.5382 54.2498 40.687 51.4594 44.6814 47.1395C48.259 43.2712 49.9734 38.5225 49.64 33.4064C49.341 28.8074 50.7778 24.4744 51.932 20.9919C53.1841 17.2128 54.1724 14.2273 52.0084 12.5517ZM46.8977 33.2542C47.5964 43.4287 37.5804 52.0133 29.0829 52.0133C26.4867 52.0133 23.7977 51.5863 22.1177 50.1347C17.3 45.9714 16.0909 40.8194 14.6944 37.2862C13.0263 33.059 8.93228 24.9364 6.94798 20.8502C6.13587 19.1772 7.49282 15.6168 9.8561 15.6168L16.6718 30.3763L19.2542 31.9548C19.2542 31.9548 13.34 18.8315 11.4674 14.3087C10.3743 11.6679 12.2581 8.47941 14.7967 8.89504L23.2581 27.284L25.8413 28.866L15.9792 7.66216C15.9396 3.90404 20.9902 3.84541 22.1641 6.03991C25.1349 11.5944 30.7123 23.784 30.7123 23.784L33.2938 25.3652L24.0358 5.37754C25.8439 2.96779 29.0339 3.30554 30.4089 6.23066C32.0606 9.74379 39.0551 25.0029 39.0551 25.0029C32.15 27.6384 27.4363 35.278 32.3717 42.8092C28.4556 34.5754 35.3933 28.7567 39.4916 26.8334C41.0428 26.1045 41.6134 24.7264 41.6134 24.7264L41.61 24.7273C42.1506 23.7307 42.1188 22.398 42.7633 20.2412C44.1598 15.573 46.0753 13.0994 48.8863 13.0994C49.5343 13.0994 50.3507 13.5929 50.7254 14.1555C52.6186 17.0002 46.2481 23.8007 46.8977 33.2542Z" fill="#FFB500"/>
</g>
<defs>
<filter id="filter0_b" x="-4" y="-4" width="63" height="64" filterUnits="userSpaceOnUse" color-interpolation-filters="sRGB">
<feFlood flood-opacity="0" result="BackgroundImageFix"/>
<feGaussianBlur in="BackgroundImage" stdDeviation="2"/>
<feComposite in2="SourceAlpha" operator="in" result="effect1_backgroundBlur"/>
<feBlend mode="normal" in="SourceGraphic" in2="effect1_backgroundBlur" result="shape"/>
</filter>
</defs>
</svg>
