<svg width="150" height="150" viewBox="0 0 150 150" fill="none" xmlns="http://www.w3.org/2000/svg">
<path d="M90.8795 31.6407C91.1842 23.0157 96.1998 17.8008 90.6803 11.1329C87.0357 6.73832 79.7818 8.57816 78.5045 10.2657C76.0318 13.5352 80.2506 16.4766 81.2232 18.1055C82.6529 20.5079 80.0162 30.3047 84.3404 37.3125C90.1998 46.7813 96.1998 45.3047 96.1998 45.3047C96.1998 45.3047 90.5865 39.9375 90.8795 31.6407Z" fill="black"/>
<path d="M91.3482 27.6211C92.5553 21.2578 95.2857 16.6993 90.6803 11.1329C87.0357 6.73832 79.7818 8.57816 78.5045 10.2657C76.0318 13.5352 80.2506 16.4766 81.2232 18.1055C82.6646 20.5079 91.3482 27.6211 91.3482 27.6211Z" fill="black"/>
<path d="M90.8793 31.6405C90.9614 29.4843 91.3481 27.3749 91.8637 25.2772C92.3207 23.4257 92.7895 21.8436 91.5942 20.1327C89.6957 17.4491 85.9106 16.2772 82.8285 17.4139C81.9028 17.7538 81.3286 18.2343 81.4575 19.1835C81.5512 19.8749 81.6918 20.496 81.7036 21.2108C81.727 22.828 81.6684 24.4335 81.6918 26.0507C81.7621 29.9178 82.266 33.9374 84.3285 37.2889C90.1879 46.7577 96.1879 45.2811 96.1879 45.2811C96.1879 45.2811 90.5864 39.9374 90.8793 31.6405Z" fill="black"/>
<path d="M90.6445 43.9805C90.6445 43.9805 83.8242 39.9023 82.2773 31.9219C81.6562 28.7344 81.6094 26.0391 81.6914 24.2227C81.7617 22.6523 82.7461 17.4961 81.4453 15.7383" fill="#070707"/>
<path d="M78.715 15.633C75.7736 10.8752 69.1056 7.1721 63.5861 8.08616C57.3986 9.1057 54.0822 13.5588 53.2033 19.2073C52.8869 21.258 52.9455 23.2971 53.297 24.7385C53.3439 24.9143 53.6837 26.1682 53.7072 26.5666C53.9416 28.0901 50.9884 29.6018 50.6486 31.2776C50.3908 32.5432 53.0275 33.3518 53.2384 33.5744C54.2697 34.7112 52.6408 40.1135 59.8712 40.6526C62.6486 40.8635 62.1095 40.6877 62.9298 41.0041C64.2072 41.4963 64.09 44.8948 64.09 44.8948C64.09 44.8948 64.8048 50.4963 69.5861 49.008C75.047 47.3205 75.258 43.4534 75.258 43.4534C75.258 43.4534 73.2306 38.0627 76.4884 32.4612C79.0783 27.9846 80.6134 18.6916 78.715 15.633Z" fill="#00E0FF"/>
<path d="M53.9648 36.5976C54.9727 36.6561 55.957 36.4218 56.8125 35.789C57.7383 35.0976 57.1055 34.3358 56.0391 34.7811C55.3945 35.0507 54.4922 35.1913 53.6719 35.039L53.9648 36.5976Z" fill="black"/>
<path d="M58.2474 29.4478C58.9784 29.4247 59.5421 28.4935 59.5065 27.3679C59.4709 26.2423 58.8495 25.3486 58.1185 25.3717C57.3875 25.3948 56.8238 26.326 56.8594 27.4516C56.895 28.5772 57.5164 29.4709 58.2474 29.4478Z" fill="black"/>
<path d="M57.1524 24.3986C55.8399 24.7033 55.5821 23.8361 56.0508 23.1799C56.3907 22.6877 57.1993 22.3127 58.6876 22.6877C60.0938 23.0392 60.6329 23.8947 60.9961 24.4103C61.3594 24.926 61.2774 25.4181 60.9493 25.4533C60.504 25.4767 58.7696 24.0236 57.1524 24.3986Z" fill="black"/>
<path d="M99.9141 127.359L83.4258 108.551C82.3945 107.379 81.7852 105.902 81.6914 104.344L80.0742 78.0234L61.9102 80.0273L67.6289 107.18C68.5547 111.574 71.0273 115.488 74.5898 118.219L93.9141 132.984L99.9141 127.359Z" fill="black"/>
<path d="M79.8638 73.6875L59.2622 75.5742L53.9536 99.4687C52.981 103.875 52.6411 108.41 52.9575 112.91L54.8677 140.145H62.6841L66.1411 110.812C66.1411 110.812 72.0122 95.2031 72.1997 95.1094C76.9692 92.8477 81.0942 89.3438 80.8833 83.5898C80.7778 80.2852 80.2388 76.957 79.8638 73.6875Z" fill="black"/>
<path d="M76.043 86.1447H62.0977C59.4375 86.1447 57.2695 83.59 57.2695 80.4494L59.7891 54.0822C60.3047 49.2658 62.7539 44.6017 65.2148 42.8439C67.5234 41.1916 70.8633 40.922 70.8633 40.922C72.6562 40.7814 75.3164 41.215 77.0156 43.6994C78.0352 45.1877 78.7969 48.0939 78.9609 50.59L80.8594 80.4494C80.8594 83.6017 78.7031 86.1447 76.043 86.1447Z" fill="black"/>
<path d="M78.281 70.6523L75.6443 54.4453L67.4764 55.7695L69.9959 71.2266L65.8123 82.7578C65.5428 83.2852 61.7576 84.9961 61.5232 85.1133C60.7967 85.4648 60.2928 86.1563 59.9178 87.5273C59.6951 88.3711 59.1326 90.7852 60.3162 91.207C59.9178 92.3203 60.1756 93.7148 60.4803 94.043C61.1834 94.8047 62.0389 94.4648 62.0389 94.4648C62.0389 94.4648 62.156 95.4375 62.9295 95.707C63.8904 96.0469 64.5584 95.5195 64.5584 95.5195C64.8982 95.7773 65.3084 95.918 65.742 95.918C66.2576 95.918 66.7146 95.7188 67.0662 95.4609C67.2889 95.5547 67.8982 95.918 68.6717 95.3672C69.1638 95.0156 70.7107 92.9883 71.1912 91.6875C71.5193 90.7969 71.4724 86.3203 71.8826 85.5352C72.2928 84.75 77.906 73.582 77.906 73.582H77.8943C78.3982 72.6563 78.5154 71.6133 78.281 70.6523Z" fill="black"/>
<path d="M68.9998 92.2266C68.7303 91.5234 68.5545 91.4766 68.0623 91.6055C67.3943 91.7812 66.6678 91.7578 66.2576 90.9375C66.1639 90.7383 66.0232 90.668 65.8123 90.7383C65.0975 90.9727 64.2068 90.9844 63.9021 89.9063C63.7849 89.5078 63.6209 89.4609 63.1873 89.4609C63.0467 89.4609 62.6365 89.6367 62.2146 89.1914C61.7459 88.6875 62.3787 87.6797 61.781 87.5859C61.6053 87.5625 60.7615 87.6562 60.5037 86.7539C60.3396 86.168 61.0193 85.4648 61.031 85.4531C60.5623 85.8633 60.199 86.5078 59.9295 87.5391C59.7068 88.3828 59.1443 90.7969 60.3279 91.2187C59.9295 92.332 60.1873 93.7266 60.492 94.0547C61.1951 94.8164 62.0506 94.4766 62.0506 94.4766C62.0506 94.4766 62.1678 95.4492 62.9412 95.7187C63.9021 96.0586 64.5701 95.5312 64.5701 95.5312C64.91 95.7891 65.3201 95.9297 65.7537 95.9297C66.2693 95.9297 66.7264 95.7305 67.0779 95.4727C67.3006 95.5664 67.91 95.9297 68.6834 95.3789C69.0935 95.0859 70.2537 93.5977 70.8982 92.3555C70.324 92.8125 69.199 92.7539 68.9998 92.2266Z" fill="black"/>
<path d="M63.9844 145.289C64.7227 145.289 65.332 144.691 65.332 143.941V140.66C65.332 138.434 63.0703 135.891 63.0703 135.891H54.8906L47.5313 138.316C45.75 139.02 44.5664 140.73 44.5547 142.641L44.543 144.117C44.543 144.762 45.0703 145.289 45.7148 145.289H63.9844Z" fill="black"/>
<path d="M105.058 131.062C105.586 130.535 105.586 129.691 105.058 129.164L102.738 126.844C101.156 125.262 97.7691 125.062 97.7691 125.062L91.9918 130.84L88.5113 137.766C87.7496 139.523 88.1246 141.562 89.4722 142.934L90.5152 143.988C90.9722 144.445 91.7222 144.445 92.1793 143.988L105.058 131.062Z" fill="black"/>
<path d="M68.4025 93.0352C68.4845 93.6094 68.3321 94.043 68.1212 94.4648C67.8868 94.8633 67.6056 95.2266 67.0782 95.4727C66.9962 94.8984 67.1486 94.4648 67.3595 94.043C67.5821 93.6445 67.8751 93.2812 68.4025 93.0352Z" fill="white"/>
<path d="M66.0351 91.9688C66.1171 92.707 65.953 93.3633 65.7187 93.9844C65.4609 94.5937 65.1562 95.1914 64.582 95.6719C64.4999 94.9219 64.664 94.2773 64.8984 93.6562C65.1562 93.0586 65.4726 92.4609 66.0351 91.9688Z" fill="white"/>
<path d="M63.2225 90.7969C63.3632 91.5234 63.246 92.1797 63.0702 92.8125C62.871 93.4336 62.6015 94.043 62.0741 94.5703C61.9335 93.8437 62.0507 93.1875 62.2264 92.5547C62.4374 91.9336 62.7069 91.3242 63.2225 90.7969Z" fill="white"/>
<path d="M63.047 86.5781C62.6837 86.8945 62.3321 87.2227 62.0391 87.5742C61.7227 87.9258 61.5704 88.2422 61.4649 88.6992C61.1954 89.5664 60.9259 90.4688 60.2931 91.3008C60.1056 90.2813 60.2931 89.3203 60.6798 88.4063C60.879 87.9609 61.2657 87.4453 61.6876 87.1875C62.1212 86.8945 62.5782 86.6953 63.047 86.5781Z" fill="white"/>
<path d="M66.093 62.1096L78.8665 59.7893L76.804 48.4338C76.6518 47.595 76.3358 46.7944 75.8742 46.0778C75.4125 45.3611 74.8141 44.7424 74.1133 44.2571C73.4125 43.7717 72.6229 43.4292 71.7896 43.2491C70.9564 43.0689 70.0958 43.0547 69.2571 43.2073C68.4183 43.3595 67.6177 43.6754 66.901 44.1371C66.1844 44.5988 65.5657 45.1971 65.0803 45.8979C64.595 46.5988 64.2524 47.3884 64.0723 48.2216C63.8922 49.0549 63.878 49.9154 64.0305 50.7542L66.093 62.1096Z" fill="black"/>
<path d="M79.313 11.9532C76.5825 8.63682 72.1528 6.51573 67.4419 6.29307C63.352 6.09385 57.7387 7.10166 54.2934 10.5118C52.2192 12.5626 50.9887 15.2579 51.3286 18.2462C51.5278 20.0509 53.0161 20.9649 53.0161 20.9649C53.0161 20.9649 54.7153 16.8634 58.8989 17.9064C63.2934 18.9962 65.2036 18.1056 65.2036 18.1056C63.727 21.5978 65.0278 23.5079 66.1762 24.5978C66.8325 25.2189 67.4419 25.9571 67.7817 26.3907C67.9575 26.6134 68.1098 26.6017 68.1801 26.3673C68.3559 25.8048 68.6723 24.7853 68.9184 24.3165C69.727 22.711 71.0395 23.2853 71.0395 23.2853C72.809 23.9064 73.4419 27.5509 70.5356 29.6954C70.4653 29.7423 70.2661 29.8829 70.3833 30.2462C71.5317 33.9376 75.9028 34.0665 76.1723 33.9376C76.1723 33.9376 76.1841 33.9376 76.1841 33.9259C76.2075 33.9142 76.2309 33.9024 76.2426 33.8907C76.8286 33.6212 77.1684 33.1407 77.2739 32.461C77.6372 30.0118 78.7036 29.297 79.477 28.2306C80.3676 27.0001 81.3755 25.6056 81.9497 21.7501C82.4887 18.0939 81.5747 14.7071 79.313 11.9532Z" fill="black"/>
<path d="M79.313 11.9532C76.5825 8.63682 72.1528 6.51573 67.4419 6.29307C63.352 6.09385 57.7387 7.10166 54.2934 10.5118C52.2192 12.5626 50.9887 15.2579 51.3286 18.2462C51.5278 20.0509 53.0161 20.9649 53.0161 20.9649C53.0161 20.9649 54.7153 16.8634 58.8989 17.9064C63.2934 18.9962 65.2036 18.1056 65.2036 18.1056C63.727 21.5978 65.0278 23.5079 66.1762 24.5978C66.8325 25.2189 67.4419 25.9571 67.7817 26.3907C67.9575 26.6134 68.1098 26.6017 68.1801 26.3673C68.3559 25.8048 68.6723 24.7853 68.9184 24.3165C69.727 22.711 71.0395 23.2853 71.0395 23.2853C72.809 23.9064 73.4419 27.5509 70.5356 29.6954C70.4653 29.7423 70.2661 29.8829 70.3833 30.2462C71.5317 33.9376 75.9028 34.0665 76.1723 33.9376C76.1723 33.9376 76.1841 33.9376 76.1841 33.9259C76.2075 33.9142 76.2309 33.9024 76.2426 33.8907C76.8286 33.6212 77.1684 33.1407 77.2739 32.461C77.6372 30.0118 78.7036 29.297 79.477 28.2306C80.3676 27.0001 81.3755 25.6056 81.9497 21.7501C82.4887 18.0939 81.5747 14.7071 79.313 11.9532Z" fill="black"/>
</svg>
