<svg width="150" height="150" viewBox="0 0 150 150" fill="none" xmlns="http://www.w3.org/2000/svg">
<path fill-rule="evenodd" clip-rule="evenodd" d="M71.7656 139.838L75 133.594L78.2344 139.838C77.2344 140.354 76.1254 140.623 75 140.623C73.8746 140.623 72.7656 140.354 71.7656 139.838ZM71.7656 139.838L75 133.594L78.2344 139.838L78.2531 139.828L78.3094 139.8L78.4781 139.706C79.459 139.197 80.428 138.666 81.3844 138.113C92.8067 131.608 103.584 124.03 113.569 115.481C130.838 100.603 150 78.2812 150 51.5625C150 26.5875 130.444 9.375 110.156 9.375C95.6531 9.375 82.9406 16.8937 75 28.3125C67.0594 16.8937 54.3469 9.375 39.8438 9.375C19.5562 9.375 0 26.5875 0 51.5625C0 78.2812 19.1719 100.603 36.4219 115.481C47.2564 124.743 59.0188 132.862 71.5219 139.706L71.6906 139.8L71.7469 139.828H71.7656V139.838Z" fill="#7CFA97"/>
</svg>
