<svg width="30" height="30" viewBox="0 0 30 30" fill="none" xmlns="http://www.w3.org/2000/svg">
<path d="M3.26035 16.8021H5.33012C5.47331 16.8021 5.59047 16.6849 5.59047 16.5417V8.23113H22.793V10.5944C22.793 10.6563 22.8125 10.7149 22.8516 10.7637C22.8735 10.7918 22.9008 10.8153 22.9318 10.8328C22.9629 10.8503 22.9971 10.8615 23.0325 10.8658C23.0679 10.87 23.1038 10.8672 23.1381 10.8575C23.1724 10.8478 23.2044 10.8314 23.2324 10.8093L27.8959 7.14714C28.0358 6.98438 28.013 6.81186 27.8959 6.71746L23.2324 3.0586C23.1844 3.0202 23.1246 2.99951 23.0631 3.00001C22.9134 3.00001 22.7898 3.12371 22.7898 3.27345V5.63673H5.33338C4.0479 5.63673 3 6.6849 3 7.97397V16.5417C3 16.6849 3.11716 16.8021 3.26035 16.8021ZM27.7331 14.1979H25.6634C25.5202 14.1979 25.403 14.3151 25.403 14.4583V22.7689H8.20047V20.4056C8.20047 20.3438 8.18094 20.2852 8.14189 20.2363C8.11997 20.2082 8.09269 20.1847 8.06165 20.1672C8.0306 20.1497 7.99639 20.1385 7.961 20.1342C7.9256 20.13 7.88972 20.1328 7.85542 20.1425C7.82111 20.1522 7.78907 20.1686 7.76113 20.1908L3.09763 23.8529C2.95769 24.0156 2.98047 24.1882 3.09763 24.2826L7.76113 27.9414C7.80994 27.9805 7.86852 28 7.93036 28C8.08006 28 8.20372 27.8763 8.20372 27.7266V25.3633H25.6666C26.9521 25.3633 28 24.3151 28 23.026V14.4583C27.9935 14.3151 27.8763 14.1979 27.7331 14.1979Z" fill="#DDDDDD"/>
</svg>
