<svg width="80" height="80" viewBox="0 0 80 80" fill="none" xmlns="http://www.w3.org/2000/svg">
<path d="M47.3486 80C41.894 80 37.639 79.9479 34.5834 79.8438C31.5279 79.7396 29.1794 79.5182 27.538 79.1797C25.8966 78.8411 24.8612 78.5547 24.4319 78.3203C24.0026 78.0859 23.3082 77.6302 22.3486 76.9531C21.591 76.3281 20.2148 75.8203 18.2198 75.4297C16.2249 75.0391 12.9042 74.6875 8.25769 74.375C7.44961 74.3229 6.81829 74.0104 6.36375 73.4375C6.26274 73.2812 6.06072 72.9427 5.75769 72.4219C5.45466 71.901 5.02536 71.0286 4.46981 69.8047C3.91425 68.5807 3.39658 67.2396 2.91678 65.7812C2.43698 64.3229 2.02031 62.5 1.66678 60.3125C1.31324 58.125 1.13647 55.9115 1.13647 53.6719C1.13647 46.0677 2.37385 40.2344 4.8486 36.1719C5.35365 35.3906 6.06072 35 6.96981 35C11.2122 35 15.8713 32.3438 20.9471 27.0312C26.0228 21.7188 30.4042 14.5052 34.091 5.39062C34.192 5.23438 34.3562 4.86979 34.5834 4.29688C34.8107 3.72396 34.9496 3.35938 35.0001 3.20312C35.0506 3.04688 35.1895 2.7474 35.4168 2.30469C35.644 1.86198 35.8461 1.57552 36.0228 1.44531C36.1996 1.3151 36.4395 1.11979 36.7425 0.859375C37.0456 0.598958 37.3612 0.429688 37.6895 0.351562C38.0178 0.273438 38.4218 0.195312 38.9016 0.117188C39.3814 0.0390625 39.9244 0 40.5304 0C41.4395 0 42.3738 0.208333 43.3334 0.625C44.293 1.04167 45.1769 1.60156 45.985 2.30469C46.793 3.00781 47.4496 3.80208 47.9547 4.6875C48.9142 6.30208 49.4698 8.61979 49.6213 11.6406C49.7728 14.6615 49.6845 17.474 49.3562 20.0781C49.0279 22.6823 48.586 25.1823 48.0304 27.5781C57.0203 27.526 63.1314 27.5 66.3637 27.5C69.3435 27.5 71.7552 28.3333 73.5986 30C75.442 31.6667 76.389 33.8542 76.4395 36.5625C76.49 38.8542 76.2627 40.599 75.7577 41.7969C76.6163 42.6823 77.336 43.6068 77.9168 44.5703C78.4976 45.5339 78.8132 46.6146 78.8637 47.8125C78.9142 50.2604 77.7526 52.7604 75.3789 55.3125C75.4294 55.4167 75.5304 55.6641 75.6819 56.0547C75.8334 56.4453 75.9471 56.7708 76.0228 57.0312C76.0986 57.2917 76.1617 57.6172 76.2122 58.0078C76.2627 58.3984 76.288 58.776 76.288 59.1406C76.187 62.0052 74.5708 64.5573 71.4395 66.7969C71.692 68.5156 71.6668 70.0521 71.3637 71.4062C70.1516 77.1354 62.1466 80 47.3486 80ZM9.54556 69.2969C17.8284 69.974 23.0809 71.1719 25.3031 72.8906C26.1112 73.5156 26.8183 73.9323 27.4244 74.1406C28.0304 74.349 29.8486 74.5443 32.8789 74.7266C35.9092 74.9089 40.7324 75 47.3486 75C49.4193 75 51.3006 74.9479 52.9925 74.8438C54.6845 74.7396 56.6415 74.5573 58.8637 74.2969C61.086 74.0365 62.8789 73.5677 64.2425 72.8906C65.6062 72.2135 66.4142 71.3542 66.6668 70.3125C66.8688 69.2188 66.389 68.0469 65.2274 66.7969C64.9749 66.1719 64.9749 65.5339 65.2274 64.8828C65.4799 64.2318 65.8839 63.776 66.4395 63.5156H66.5153C66.7678 63.4115 67.0708 63.2812 67.4243 63.125C67.7779 62.9688 68.2956 62.6823 68.9774 62.2656C69.6592 61.849 70.2274 61.3411 70.6819 60.7422C71.1365 60.1432 71.389 59.5573 71.4395 58.9844C71.4395 58.776 71.4269 58.5807 71.4016 58.3984C71.3764 58.2161 71.3511 58.0469 71.3259 57.8906C71.3006 57.7344 71.2501 57.5781 71.1743 57.4219L70.985 57.0312L70.7956 56.7188L70.6062 56.4453L70.4547 56.25L70.341 56.0938L70.3031 56.0156C70.1011 55.7552 69.9749 55.4688 69.9243 55.1562C69.8738 54.8438 69.8738 54.5312 69.9243 54.2188C69.9749 53.9062 70.0885 53.6068 70.2653 53.3203C70.442 53.0339 70.6567 52.7865 70.9092 52.5781C71.2122 52.4219 71.5405 52.2005 71.894 51.9141C72.2476 51.6276 72.6895 51.0938 73.2198 50.3125C73.7501 49.5312 74.0153 48.75 74.0153 47.9688C73.9648 46.6667 73.0052 45.4427 71.1365 44.2969C70.8334 44.0885 70.5809 43.8411 70.3789 43.5547C70.1769 43.2682 70.0254 42.9427 69.9243 42.5781C69.8738 42.3698 69.8612 42.1484 69.8865 41.9141C69.9117 41.6797 69.9622 41.4453 70.038 41.2109C70.1137 40.9766 70.2274 40.7552 70.3789 40.5469C70.4294 40.4948 70.4799 40.4297 70.5304 40.3516C70.5809 40.2734 70.6819 40.0781 70.8334 39.7656C70.985 39.4531 71.1112 39.1536 71.2122 38.8672C71.3132 38.5807 71.4016 38.2292 71.4774 37.8125C71.5531 37.3958 71.591 37.0052 71.591 36.6406C71.5405 35.7031 71.3006 34.9219 70.8713 34.2969C70.442 33.6719 69.8865 33.2422 69.2047 33.0078C68.5228 32.7734 67.9799 32.6302 67.5759 32.5781C67.1718 32.526 66.7678 32.5 66.3637 32.5H48.6365L44.5456 32.5781C44.3435 32.5781 44.1415 32.5521 43.9395 32.5C43.7375 32.4479 43.5481 32.3698 43.3713 32.2656C43.1946 32.1615 43.0304 32.0443 42.8789 31.9141C42.7274 31.7839 42.6011 31.6146 42.5001 31.4062C42.0456 30.7292 41.9698 29.9479 42.2728 29.0625C43.0809 26.6667 43.7249 24.0365 44.2047 21.1719C44.6845 18.3073 44.9117 15.5729 44.8865 12.9688C44.8612 10.3646 44.4951 8.46354 43.788 7.26562C43.7375 7.16146 43.6365 6.97917 43.485 6.71875C43.3334 6.45833 43.2324 6.27604 43.1819 6.17188C43.1314 6.06771 43.0178 5.92448 42.841 5.74219C42.6642 5.5599 42.4875 5.42969 42.3107 5.35156C42.1339 5.27344 41.894 5.19531 41.591 5.11719C41.288 5.03906 40.9345 5 40.5304 5C40.3789 5 40.2274 5.05208 40.0759 5.15625C39.9244 5.26042 39.6971 5.49479 39.394 5.85938C39.091 6.22396 38.8132 6.71875 38.5607 7.34375C34.6718 17.0312 29.9749 24.7526 24.4698 30.5078C18.9648 36.263 13.6365 39.401 8.48496 39.9219C8.08092 40.8594 7.72738 41.7969 7.42435 42.7344C7.12132 43.6719 6.80567 45.1562 6.47738 47.1875C6.1491 49.2188 5.98496 51.3802 5.98496 53.6719C5.98496 56.0156 6.21223 58.3464 6.66678 60.6641C7.12132 62.9818 7.58849 64.8047 8.06829 66.1328C8.54809 67.4609 9.04051 68.5156 9.54556 69.2969Z" fill="white"/>
</svg>
