<svg width="80" height="80" viewBox="0 0 80 80" fill="none" xmlns="http://www.w3.org/2000/svg">
<path d="M32.6513 0C45.227 0 52.7018 0.46875 55.0755 1.40625C55.7321 1.71875 56.5906 2.26562 57.6512 3.04688C58.4088 3.67188 59.7851 4.17969 61.78 4.57031C63.775 4.96094 67.0957 5.3125 71.7422 5.625C72.1462 5.67708 72.5124 5.78125 72.8406 5.9375C73.1689 6.09375 73.4341 6.30208 73.6361 6.5625C73.7371 6.71875 73.9391 7.05729 74.2422 7.57812C74.5452 8.09896 74.9745 8.97135 75.53 10.1953C76.0856 11.4193 76.6033 12.7604 77.0831 14.2188C77.5629 15.6771 77.9795 17.5 78.3331 19.6875C78.6866 21.875 78.8634 24.0885 78.8634 26.3281C78.8634 33.8802 77.626 39.7135 75.1512 43.8281C74.9997 44.0365 74.8103 44.2318 74.5831 44.4141C74.3558 44.5964 74.1159 44.7396 73.8634 44.8438C73.6108 44.9479 73.3331 45 73.03 45C68.7876 45 64.1285 47.6562 59.0528 52.9688C53.977 58.2812 49.5957 65.4948 45.9088 74.6094C44.9997 76.7448 44.3684 78.0208 44.0149 78.4375C43.0553 79.4271 41.5401 79.9479 39.4694 80C38.1058 80 36.7295 79.5573 35.3406 78.6719C33.9518 77.7865 32.8533 76.6667 32.0452 75.3125C31.0856 73.6979 30.53 71.3802 30.3785 68.3594C30.227 65.3385 30.3154 62.526 30.6437 59.9219C30.972 57.3177 31.4139 54.8177 31.9694 52.4219C22.8785 52.474 16.7674 52.5 13.6361 52.5C10.6563 52.5 8.24469 51.6667 6.40125 50C4.55782 48.3333 3.61085 46.1458 3.56034 43.4375C3.50984 41.1458 3.73711 39.401 4.24216 38.2031C2.22196 36.1719 1.1866 34.1667 1.1361 32.1875C1.08559 29.7396 2.24721 27.2396 4.62095 24.6875C4.57044 24.5833 4.46943 24.3359 4.31792 23.9453C4.1664 23.5547 4.05277 23.2292 3.97701 22.9688C3.90125 22.7083 3.83812 22.3828 3.78761 21.9922C3.73711 21.6016 3.71186 21.224 3.71186 20.8594C3.81287 17.9948 5.42903 15.4427 8.56034 13.2031C8.30782 11.4844 8.33307 9.94792 8.6361 8.59375C9.84822 2.86458 17.8533 0 32.6513 0ZM70.4543 10.7031C62.1714 10.026 56.9189 8.82812 54.6967 7.10938L54.4694 6.875C54.0149 6.5625 53.6487 6.32812 53.3709 6.17188C53.0932 6.01562 52.5376 5.84635 51.7043 5.66406C50.8709 5.48177 49.722 5.35156 48.2573 5.27344C46.7927 5.19531 44.7977 5.13021 42.2725 5.07812C39.7472 5.02604 36.5401 5 32.6513 5C20.429 5 13.9896 6.5625 13.3331 9.6875C13.131 10.8333 13.6108 12.0052 14.7725 13.2031C15.025 13.8281 15.025 14.4661 14.7725 15.1172C14.5199 15.7682 14.1159 16.224 13.5603 16.4844H13.4846C13.2321 16.5885 12.929 16.7188 12.5755 16.875C12.222 17.0312 11.7043 17.3177 11.0225 17.7344C10.3406 18.151 9.77246 18.6589 9.31792 19.2578C8.86337 19.8568 8.61085 20.4688 8.56034 21.0938C8.56034 21.25 8.57297 21.4193 8.59822 21.6016C8.62347 21.7839 8.64873 21.9531 8.67398 22.1094C8.69923 22.2656 8.74974 22.4219 8.82549 22.5781L9.01489 22.9688L9.20428 23.2812L9.39367 23.5547L9.54519 23.75L9.65883 23.9062L9.69671 23.9844C10.0502 24.5052 10.1639 25.1042 10.0376 25.7812C9.91135 26.4583 9.5957 27.0052 9.09064 27.4219C8.78761 27.5781 8.45933 27.7995 8.1058 28.0859C7.75226 28.3724 7.31034 28.9062 6.78004 29.6875C6.24974 30.4688 5.98458 31.25 5.98458 32.0312C6.03509 33.3333 6.99469 34.5573 8.86337 35.7031C9.51994 36.0677 9.92398 36.6406 10.0755 37.4219C10.126 37.7865 10.1134 38.138 10.0376 38.4766C9.96186 38.8151 9.82297 39.1406 9.62095 39.4531C9.51994 39.5573 9.4063 39.7396 9.28004 40C9.15378 40.2604 8.97701 40.7422 8.74974 41.4453C8.52246 42.1484 8.40883 42.7865 8.40883 43.3594C8.40883 43.724 8.45933 44.0755 8.56034 44.4141C8.66135 44.7526 8.78761 45.0521 8.93913 45.3125C9.09064 45.5729 9.25479 45.8073 9.43155 46.0156C9.60832 46.224 9.81034 46.4062 10.0376 46.5625C10.2649 46.7188 10.4922 46.849 10.7194 46.9531C10.9467 47.0573 11.1866 47.1484 11.4391 47.2266C11.6917 47.3047 11.9189 47.3568 12.1209 47.3828C12.323 47.4089 12.5376 47.4349 12.7649 47.4609C12.9922 47.487 13.1689 47.5 13.2952 47.5H13.6361C21.3634 47.5 28.6361 47.474 35.4543 47.4219C36.3129 47.4219 36.9947 47.8125 37.4997 48.5938C37.9543 49.2708 38.03 50.0521 37.727 50.9375C36.4644 54.6875 35.6437 58.724 35.2649 63.0469C34.8861 67.3698 35.2018 70.599 36.2119 72.7344C36.2624 72.8385 36.376 73.0599 36.5528 73.3984C36.7295 73.737 36.8684 73.9583 36.9694 74.0625C37.0704 74.1667 37.2346 74.3099 37.4619 74.4922C37.6891 74.6745 37.9669 74.8047 38.2952 74.8828C38.6235 74.9609 39.0149 75 39.4694 75C40.126 75 40.7826 74.2188 41.4391 72.6562C45.328 62.9688 50.025 55.2474 55.53 49.4922C61.0351 43.737 66.3634 40.599 71.5149 40.0781C73.1815 36.224 74.0149 31.6406 74.0149 26.3281C74.0149 23.9844 73.7876 21.6536 73.3331 19.3359C72.8785 17.0182 72.4113 15.1953 71.9315 13.8672C71.4518 12.5391 70.9593 11.4844 70.4543 10.7031Z" fill="white"/>
</svg>
