<svg width="27" height="40" viewBox="0 0 27 40" fill="none" xmlns="http://www.w3.org/2000/svg">
<mask id="path-1-inside-1" fill="white">
<path d="M26.4531 26.2764C26.4531 22.8286 25.0835 19.522 22.6455 17.084C20.2075 14.646 16.9009 13.2764 13.4531 13.2764C10.0053 13.2764 6.69871 14.646 4.26074 17.084C1.82276 19.522 0.453126 22.8286 0.453125 26.2764L13.4531 26.2764H26.4531Z"/>
</mask>
<path d="M26.4531 26.2764C26.4531 22.8286 25.0835 19.522 22.6455 17.084C20.2075 14.646 16.9009 13.2764 13.4531 13.2764C10.0053 13.2764 6.69871 14.646 4.26074 17.084C1.82276 19.522 0.453126 22.8286 0.453125 26.2764L13.4531 26.2764H26.4531Z" stroke="white" mask="url(#path-1-inside-1)"/>
<circle cx="13.453" cy="6.3617" r="6.1117" stroke="white" stroke-width="0.5"/>
</svg>
