<svg width="60" height="60" viewBox="0 0 60 60" fill="none" xmlns="http://www.w3.org/2000/svg">
<g clip-path="url(#clip0)">
<path d="M47.325 22.5004C46.5498 22.3116 45.7403 22.3141 44.9663 22.5079C44.8031 21.3235 44.2764 20.2189 43.4587 19.3466C42.9642 18.8471 42.3754 18.4507 41.7266 18.1804C41.0777 17.91 40.3817 17.7711 39.6788 17.7716L39.48 17.7754H39.4538C38.6287 17.7754 37.8412 17.9404 37.125 18.2404C36.9013 17.5844 36.5292 16.9889 36.0375 16.5004C35.4847 15.9714 34.8266 15.5647 34.1062 15.3069C33.3858 15.0491 32.6192 14.946 31.8562 15.0041H31.875C32.9915 13.5249 33.6444 11.7479 33.7514 9.89766C33.8584 8.04745 33.4146 6.20704 32.4761 4.60895C31.5376 3.01085 30.1465 1.72677 28.4785 0.918943C26.8105 0.111113 24.9406 -0.184223 23.1048 0.0702467C21.2691 0.324717 19.5499 1.11758 18.1646 2.34865C16.7792 3.57973 15.7899 5.19379 15.3214 6.98692C14.853 8.78004 14.9266 10.6718 15.5328 12.4231C16.139 14.1745 17.2508 15.7068 18.7275 16.8266L18.75 26.8166C16.755 26.8676 14.8465 27.6419 13.38 28.9954C11.25 31.3166 11.25 34.9166 11.25 39.4166V42.1166C11.3036 44.1259 11.8031 46.0982 12.7124 47.8908C13.6216 49.6833 14.9179 51.2514 16.5075 52.4816L17.85 53.8166C22.5 58.5791 26.775 60.0041 36.675 60.0041C47.475 60.0041 52.5 53.9666 52.5 41.0291V31.6166C52.5 28.7291 51.675 23.6666 47.325 22.5041V22.5004ZM48.75 31.3129V41.0254C48.75 53.6629 43.9125 56.2504 36.675 56.2504C26.925 56.2504 23.925 54.7879 20.55 51.2629L19.2 49.8754C17.9522 48.9939 16.9242 47.8369 16.1958 46.4939C15.4674 45.151 15.0582 43.6583 15 42.1316V39.3754C14.5172 36.7107 14.9093 33.9614 16.1175 31.5379C16.815 31.0429 17.7337 30.6829 18.735 30.6379L18.7463 33.2629V32.4379L17.4712 38.0629C17.4341 38.1466 17.4137 38.2368 17.4114 38.3284C17.4091 38.42 17.4249 38.5111 17.4578 38.5966C17.4907 38.6821 17.5401 38.7602 17.6032 38.8266C17.6663 38.893 17.7419 38.9463 17.8256 38.9835C17.9093 39.0207 17.9996 39.041 18.0911 39.0433C18.1827 39.0456 18.2738 39.0299 18.3593 38.997C18.4448 38.9641 18.523 38.9146 18.5894 38.8515C18.6558 38.7884 18.7091 38.7128 18.7463 38.6291L22.4963 34.0879C22.5207 33.9754 22.5207 33.8591 22.4963 33.7466V12.7129L22.4925 12.5666C22.4925 11.6066 22.8038 10.7216 23.3288 10.0016C23.5205 9.80075 23.7536 9.64404 24.012 9.54236C24.2704 9.44069 24.5478 9.39651 24.825 9.41287H24.8212C25.6087 9.41287 26.2463 10.0504 26.2463 10.8379V25.3879C26.2463 25.8852 26.4438 26.3621 26.7954 26.7137C27.1471 27.0653 27.624 27.2629 28.1213 27.2629C28.6185 27.2629 29.0954 27.0653 29.4471 26.7137C29.7987 26.3621 29.9963 25.8852 29.9963 25.3879V20.4379C30.0057 20.2023 30.0623 19.9711 30.1628 19.7578C30.2632 19.5446 30.4054 19.3536 30.5809 19.1963C30.7564 19.0389 30.9617 18.9184 31.1846 18.8418C31.4076 18.7652 31.6436 18.7341 31.8788 18.7504C32.1064 18.7068 32.3409 18.714 32.5654 18.7714C32.7899 18.8289 32.999 18.9352 33.1778 19.0827C33.3565 19.2303 33.5005 19.4155 33.5994 19.6251C33.6983 19.8347 33.7497 20.0636 33.75 20.2954L33.7462 20.4041V25.3879C33.7462 25.8852 33.9438 26.3621 34.2954 26.7137C34.6471 27.0653 35.124 27.2629 35.6212 27.2629C36.1185 27.2629 36.5954 27.0653 36.9471 26.7137C37.2987 26.3621 37.4962 25.8852 37.4962 25.3879V22.9879C37.5622 22.552 37.7961 22.1593 38.1479 21.8937C38.4997 21.6281 38.9415 21.5107 39.3788 21.5666C39.6072 21.5413 39.8384 21.565 40.057 21.6361C40.2756 21.7073 40.4765 21.8242 40.6462 21.9791C41.0212 22.4629 41.2462 23.0816 41.2462 23.7529V26.8879C41.2522 27.3839 41.4544 27.8573 41.8086 28.2045C42.1629 28.5517 42.6403 28.7444 43.1363 28.7404C43.5654 28.7406 43.9822 28.5966 44.3196 28.3313C44.6569 28.066 44.8953 27.695 44.9963 27.2779C45.0834 26.8819 45.2934 26.5236 45.5963 26.2541C45.7276 26.1946 45.8702 26.1638 46.0144 26.1638C46.1586 26.1638 46.3012 26.1946 46.4325 26.2541C47.246 26.7825 47.8946 27.5288 48.3044 28.408C48.7141 29.2872 48.8686 30.2639 48.75 31.2266L48.7537 31.2004L48.75 31.3129Z" fill="white"/>
</g>
<defs>
<clipPath id="clip0">
<rect width="60" height="60" fill="white"/>
</clipPath>
</defs>
</svg>
