<svg width="45" height="45" viewBox="0 0 45 45" fill="none" xmlns="http://www.w3.org/2000/svg">
<path d="M37.5 3.75H0V41.25H45V3.75H37.5ZM6 39.75H1.5V35.25H6V39.75ZM6 33.75H1.5V29.25H6V33.75ZM6 27.75H1.5V23.25H6V27.75ZM6 21.75H1.5V17.25H6V21.75ZM6 15.75H1.5V11.25H6V15.75ZM6 9.75H1.5V5.25H6V9.75ZM37.5 39.75H7.5V5.25H37.5V39.75ZM43.5 39.75H39V35.25H43.5V39.75ZM43.5 33.75H39V29.25H43.5V33.75ZM43.5 27.75H39V23.25H43.5V27.75ZM43.5 21.75H39V17.25H43.5V21.75ZM43.5 15.75H39V11.25H43.5V15.75ZM43.5 9.75H39V5.25H43.5V9.75Z" fill="white"/>
<path d="M28.4035 22.1252C28.3372 22.0092 28.241 21.9131 28.125 21.8467L17.625 15.8467C17.2663 15.6396 16.8076 15.7625 16.6005 16.1212C16.534 16.2363 16.4994 16.367 16.5 16.4999V28.4999C16.5003 28.7676 16.6432 29.0148 16.875 29.1487C17.107 29.2827 17.393 29.2827 17.625 29.1487L28.125 23.1487C28.4845 22.943 28.6092 22.4848 28.4035 22.1252ZM18 27.2069V17.7929L26.238 22.4999L18 27.2069Z" fill="white"/>
</svg>
